<svg width="512" height="512" viewBox="0 0 512 512" fill="none" xmlns="http://www.w3.org/2000/svg">
<g clip-path="url(#clip0_8618_10707)">
<path d="M59 258.969H89C89 226.437 115.467 199.969 148 199.969V169.969C115.467 169.969 89 143.502 89 110.969H59C59 143.502 32.533 169.969 0 169.969V199.969C32.533 199.97 59 226.437 59 258.969Z" fill="#F3C76F"/>
<path d="M453 110.969H423C423 143.502 396.533 169.969 364 169.969V199.969C396.533 199.969 423 226.436 423 258.969H453C453 226.437 479.467 199.969 512 199.969V169.969C479.467 169.969 453 143.501 453 110.969Z" fill="#F3C76F"/>
<path d="M241 207.711H271V405.711H241V207.711Z" fill="#455A64"/>
<path d="M144.365 243.18L119.635 260.162C158.721 317.079 181.138 396.496 181.138 478.049V511.671H211.138V478.049C211.138 434.323 205.335 391.67 193.89 351.274C182.376 310.636 165.713 274.268 144.365 243.18Z" fill="#607D8B"/>
<path d="M367.635 243.18C346.286 274.267 329.624 310.636 318.111 351.274C306.666 391.67 300.863 434.323 300.863 478.049V511.671H330.863V478.049C330.863 396.496 353.28 317.079 392.366 260.162L367.635 243.18Z" fill="#607D8B"/>
<path d="M45 511.672C69.8528 511.672 90 491.525 90 466.672C90 441.819 69.8528 421.672 45 421.672C20.1472 421.672 0 441.819 0 466.672C0 491.525 20.1472 511.672 45 511.672Z" fill="#F3C76F"/>
<path d="M467 511.672C491.853 511.672 512 491.525 512 466.672C512 441.819 491.853 421.672 467 421.672C442.147 421.672 422 441.819 422 466.672C422 491.525 442.147 511.672 467 511.672Z" fill="#F3C76F"/>
<path d="M92.7261 353.789L72.0801 375.555C103.169 405.043 121 446.521 121 489.353V511.673H151V489.353C151 438.327 129.76 388.916 92.7261 353.789Z" fill="#455A64"/>
<path d="M439.92 375.556L419.275 353.789C382.24 388.917 361 438.328 361 489.354V511.674H391V489.354C391 446.522 408.831 405.044 439.92 375.556Z" fill="#455A64"/>
<path d="M0 315.977H30V345.977H0V315.977Z" fill="#EEECE8"/>
<path d="M482 315.977H512V345.977H482V315.977Z" fill="#EEECE8"/>
<path d="M59 23.3203H89V53.3203H59V23.3203Z" fill="#EEECE8"/>
<path d="M423 23.3203H453V53.3203H423V23.3203Z" fill="#EEECE8"/>
<path d="M200.392 171.472L256 153.712L311.608 171.472L311.901 113.098L345.977 65.6991L290.55 47.3811L256 0.328125L221.451 47.3811L166.024 65.6991L200.099 113.097L200.392 171.472Z" fill="#F3C76F"/>
</g>
<defs>
<clipPath id="clip0_8618_10707">
<rect width="512" height="512" fill="white"/>
</clipPath>
</defs>
</svg>
