<?xml version="1.0" encoding="UTF-8"?><svg id="Layer_1" xmlns="http://www.w3.org/2000/svg" viewBox="0 0 1080 595.18"><path d="M218.76,208.15c-6.3,10.62-11.9,19.98-17.43,29.38-32.05,54.48-64.1,108.96-96.1,163.47-1.15,1.95-2.4,3.28-4.72,3.99-19.83,6.1-39.4,12.97-60,20.96,3.87-6.58,7.14-12.19,10.45-17.78,44.88-75.7,88.72-152.01,134.2-227.35,6.8-11.26,13.86-22.33,21.88-32.78,1.63-2.12,3.37-3.32,6.02-3.8,18-3.26,35.98-6.58,53.94-10.07,3.16-.62,3.28,.68,3.13,3.07-.85,13.29-1.59,26.59-2.45,39.88-1.16,17.94-2.42,35.87-3.59,53.82-2.28,35.05-4.53,70.1-6.76,105.16-.55,8.64-1.1,17.28-1.39,25.94-.14,4.18-1.76,6.31-6.02,7.06-11.3,1.99-22.52,4.37-33.8,6.46-6.31,1.17-8.25-.78-7.83-7.17,2.33-35.21,4.6-70.43,6.93-105.65,1.13-17.11,2.36-34.21,3.54-51.32,.04-.58,0-1.17,0-3.25Z" style="fill:#1dbfc8;"/><path d="M748.36,187.23c1.93,33.5,3.82,66.57,5.74,99.64,1.15,19.78,2.25,39.56,3.59,59.32,.3,4.4-.86,6.01-5.47,5.48-10.41-1.19-20.86-2.14-31.31-2.87-3.74-.26-3.7-2.51-3.84-5.08-.61-11.3-1.27-22.61-1.87-33.91-2.47-46.39-4.91-92.77-7.39-139.16-.9-16.79-1.8-33.58-2.91-50.36-.25-3.77,.72-4.95,4.6-4.54,9.27,.98,18.57,1.72,27.87,2.27,7.32,.43,12.01,5.22,16.92,9.63,8.5,7.63,13.3,17.83,18.44,27.69,35.67,68.43,71.23,136.92,106.82,205.39,1.16,2.23,2.67,4.66,.87,6.98-1.61,2.07-4.01,.65-6.08,.32-10.5-1.72-20.95-3.85-31.5-5-4.92-.54-7.18-2.78-9.19-6.82-17.83-35.92-35.82-71.76-53.76-107.63-9.45-18.9-18.89-37.81-28.39-56.69-.79-1.57-1.13-3.5-3.15-4.66Z" style="fill:#1dbfc8;"/><path d="M888.6,336.44c11.12,2.32,21.49,4.46,31.84,6.64,16.59,3.5,33.15,7.09,49.75,10.53,15.79,3.28,30.36-8.3,31.71-25.08,1.86-23.17-8.19-37-30.9-42.2-11.82-2.7-23.76-4.89-35.57-7.66-32.33-7.58-56.3-34.33-60.54-67.25-2.35-18.22-1.13-35.86,8.54-52.11,2.76-4.64,6.51-8.37,10.68-11.76,5.09-4.13,10.27-5.53,17.03-3.85,22.91,5.66,45.8,11.38,68.42,18.1,1.1,.33,2.15,.82,3.82,1.47-7.81,8.76-13.7,18.7-22.99,25.76-3.86,2.94-7.76,3.66-12.57,2.32-7.81-2.19-15.59-4.64-23.87-4.84-5.29-.13-7.82,2.27-9.23,7.09-6.1,20.87,7.16,44.04,29.31,50.07,12.01,3.27,24.42,5.05,36.41,8.39,35.75,9.98,55.17,34.43,57.25,71.53,.93,16.46-.25,32.67-8.2,47.57-8.61,16.14-22.5,24.06-40.57,24.47-7.24,.16-13.84-3.3-20.69-5.22-19.04-5.37-38.2-10.27-57.49-14.61-2.56-.58-4.22-1.72-5.29-3.97-5.5-11.53-11-23.07-16.87-35.4Z" style="fill:#1dbfc8;"/><path d="M520.74,112.13c-15.01,11.1-29.82,23.68-42.37,38.72-1.63,1.96-3.79,1.74-5.93,1.89-17.43,1.22-34.85,2.56-52.29,3.62-3.36,.21-4.41,1.35-4.67,4.65-1.7,21.73-3.62,43.44-5.45,65.16-2.6,30.84-5.18,61.67-7.76,92.51-.76,9.12-1.63,18.23-2.16,27.37-.16,2.81-1.08,3.56-3.79,3.79-11.6,1-23.19,2.08-34.74,3.53-4.64,.58-6.07-.98-5.71-5.35,1.22-14.92,2.28-29.86,3.49-44.78,1.85-22.71,3.77-45.42,5.66-68.13,1.93-23.21,3.81-46.42,5.81-69.62,.58-6.76,.75-6.75-6.1-5.9-21.46,2.65-42.92,5.25-64.36,8.03-3.55,.46-4.61-.39-4.49-4.05,.31-9.31,.64-18.61,2.03-27.83,.67-4.48,2.74-7.09,7.97-7.74,23.27-2.87,46.53-5.85,69.86-8.2,34.95-3.51,69.97-6.04,105.05-7.58,13.42-.59,26.88-.1,39.94-.1Z" style="fill:#1dbfc8;"/><path d="M569.29,110.6c-1.3,15.38-2.48,29.79-3.73,44.2-2.14,24.53-4.34,49.05-6.5,73.57-1.89,21.37-3.71,42.75-5.66,64.12-.6,6.54,2.16,10.16,8.83,10.46,29.61,1.3,59.22,2.52,88.82,3.75,10.15,.42,20.3,.85,30.45,1.09,3.11,.07,3.83,.72,2.3,3.69-4.33,8.4-7.64,17.34-13.72,24.8-5.3,6.5-11.85,9.7-20.39,9.47-42.11-1.15-84.23-2.08-126.35-3.16-9.93-.25-16-7.8-15-17.67,2.67-26.14,5.1-52.3,7.68-78.45,2.9-29.46,5.86-58.92,8.77-88.38,.15-1.51,.34-2.86,1.36-4.14,12.23-15.21,25.11-29.77,40.61-41.8,.49-.38,1.07-.66,2.53-1.56Z" style="fill:#1dbfc8;"/><path d="M221.44,461.12c6.26,3.13,8.38,6.95,7.5,12.96-.88,6.04-4.59,9.83-10.82,10.6-9.94,1.23-19.93,.3-29.9,.58-2.48,.07-3.05-1.16-3.04-3.38,.06-13.3,.09-26.6-.02-39.91-.02-2.68,.94-3.4,3.47-3.35,8.31,.14,16.63,0,24.94,.12,7.38,.12,11.84,2.8,13.56,8,2.04,6.15-.68,10.58-5.71,14.37Z" style="fill:#eb9321;"/><path d="M885.33,461.07c6.29,3.17,8.5,7.21,7.46,13.32-1.02,5.98-4.75,9.6-11.09,10.34-9.77,1.14-19.6,.27-29.4,.53-2.29,.06-3.25-.77-3.23-3.19,.08-13.47,.09-26.93,0-40.4-.02-2.5,1-3.07,3.26-3.04,8.64,.11,17.29-.04,25.94,.15,6.92,.15,11.27,3.06,12.84,8.25,1.8,5.94-.7,10.27-5.77,14.04Z" style="fill:#eb9321;"/><path d="M539,462.35c0,6.49-.1,12.98,.05,19.47,.06,2.56-.74,3.38-3.37,3.5-11.52,.51-11.44,.6-11.59-11.41-.03-2.11,1.51-5.48-1.24-6.17-3.78-.95-7.95-.8-11.86,.06-1.23,.27-.79,2.02-.81,3.14-.04,3.49-.21,7,.04,10.48,.22,3.18-1.1,3.86-4.03,3.9-10.43,.14-10.43,.25-10.43-9.97,0-10.82,.09-21.64-.06-32.45-.04-3.07,.57-4.34,4.04-4.33,10.42,.02,10.33-.14,10.51,10.85,.03,2.03-1.63,5.42,1.45,5.98,3.82,.7,7.91,.74,11.83-.2,.33-.08,.55-1.12,.59-1.72,.09-1.33,.05-2.66,.05-3.99,0-11.28,0-11.15,11.4-10.9,3,.07,3.55,1.15,3.49,3.8-.15,6.65-.05,13.31-.05,19.97Z" style="fill:#eb9321;"/><path d="M771.03,455.86c0-2.5-.13-5,.03-7.49,.2-3.1-1.53-7.59,.75-9,3.36-2.08,8.06-.61,12.19-.64,2.37-.02,1.77,1.99,1.78,3.36,.05,8.32-.03,16.65,.05,24.97,.05,5.63,1.78,7.71,6.17,7.77,4.55,.07,6.6-2.23,6.67-7.95,.1-7.99,.14-15.98-.03-23.97-.07-3.06,.54-4.35,4.03-4.35,10.54,.02,10.55-.15,10.54,10.26,0,6.49,.1,12.99-.1,19.47-.27,8.49-4.93,14.4-13.02,16.87-6.28,1.92-12.48,1.59-18.55-.85-6.73-2.71-10.18-7.82-10.46-14.99-.18-4.49-.03-8.99-.04-13.48Z" style="fill:#eb9321;"/><path d="M263.3,461.73c0-6.49,.12-12.98-.06-19.46-.08-2.85,.87-3.71,3.7-3.67,9.81,.15,19.64,.3,29.44-.04,5.02-.18,3.47,3.05,3.73,5.55,.31,2.99,.01,5.09-4.03,4.78-4.8-.36-9.65,.07-14.46-.14-3.01-.13-3.54,1.16-3.59,3.82-.06,2.89,1.3,3.24,3.64,3.18,4.66-.11,9.32,.14,13.97-.08,4.36-.21,3.22,2.84,3.21,5.07-.02,2.2,1.23,5.43-3.16,5.08-1.65-.13-3.33-.02-4.99-.02-12.6,0-12.76,0-12.54,4.68,.26,5.42-2.13,4.31,12.78,4.43,2.5,.02,5.02,.23,7.48-.05,4.54-.52,3.72,2.6,3.67,5.14-.05,2.42,1.14,5.44-3.49,5.33-10.47-.24-20.96-.17-31.44-.02-3.16,.05-3.97-1.19-3.9-4.12,.17-6.48,.05-12.97,.05-19.46Z" style="fill:#eb9322;"/><path d="M376.53,485.25c-3.81-.13-8.31,1.12-8.92-4.97-.16-1.61-1.78-1.66-3.18-1.64-3.66,.04-7.32,.1-10.97-.02-2.06-.07-3.15,.81-3.4,2.74-.44,3.36-2.43,3.99-5.55,3.97-11.39-.08-11.43,.02-7.41-10.57,4.12-10.85,8.45-21.63,12.39-32.55,1.06-2.93,2.58-3.61,5.45-3.61,12.38,0,12.42-.11,16.82,11.41,3.73,9.76,7.38,19.55,11.02,29.33,2.18,5.84,2.15,5.85-4.26,5.91-.66,0-1.33,0-2,0Z" style="fill:#eb9321;"/><path d="M415.03,462.31c-.05-10.94,6.23-20.58,15.55-23.87,10.15-3.57,22-.34,28.53,7.62,2.09,2.55,2.9,4.43-1.14,5.66-1.41,.43-2.76,1.19-4.01,1.98-2.83,1.8-4.63,2.21-6.97-1.42-4.07-6.32-13.17-4.88-15.87,2.19-1.71,4.49-1.66,9.14-.05,13.67,1.17,3.31,3.33,5.79,6.98,6.42,4,.69,7.62-.66,9.44-4.11,1.72-3.26,3.34-2.88,5.73-1.36,.55,.35,1.2,.56,1.8,.84,7.4,3.48,7.73,4.81,1.47,10.24-8.16,7.09-17.62,8.19-27.53,4.42-8.56-3.25-13.88-12.17-13.93-22.29Z" style="fill:#eb9321;"/><path d="M624.85,464.68c-.08-13.47,5.88-22.7,15.43-26.22,9.95-3.67,21.88-.44,28.54,7.6,2.06,2.48,2.93,4.42-1.07,5.72-1.41,.46-2.74,1.21-4.01,1.99-2.82,1.74-4.98,2.58-6.96-1.48-1.68-3.46-5.36-4.25-9.09-3.68-3.66,.56-5.9,2.84-6.98,6.3-1.43,4.58-1.36,9.18,.23,13.68,1.2,3.4,3.65,5.54,7.28,6.01,3.79,.49,7.28-.7,8.92-4.13,1.6-3.36,3.35-2.92,5.78-1.5,.72,.42,1.48,.76,2.22,1.13,6.98,3.49,7.24,4.67,1.12,10.02-8.14,7.13-17.66,8.43-27.48,4.44-9.68-3.93-13.7-12.03-13.94-19.88Z" style="fill:#eb9321;"/><path d="M705.22,461.58c0-6.48,.09-12.97-.04-19.45-.05-2.49,.61-3.43,3.31-3.54,11.48-.49,11.47-.59,11.47,10.72,0,5.98,.42,12.01-.12,17.94-.5,5.5,1.64,6.92,6.61,6.3,2.62-.33,5.33,.12,7.97-.1,2.92-.24,3.66,.95,3.59,3.71-.26,10,1.01,7.91-7.67,8.07-7.15,.13-14.3-.06-21.45,.07-2.81,.05-3.79-.96-3.73-3.77,.16-6.65,.05-13.3,.05-19.95Z" style="fill:#eb9322;"/><path d="M205.79,475.27c-5.8,.02-7.12-1.67-5.77-7.38,.11-.47,.18-1.25,.43-1.33,3.7-1.15,7.46-1.09,11.1,.15,2.18,.74,2.95,2.71,2.42,4.85-.96,3.82-4.19,3.63-7.18,3.71-.33,0-.66,0-.99,0Z" style="fill:#fdfaf7;"/><path d="M205.19,448.69c1.97,0,3.32-.16,4.61,.04,2.09,.32,3.08,1.78,3.13,3.83,.05,1.92-1.01,3.29-2.81,3.53-3.22,.44-6.83,1.35-9.57-.51-1.45-.99-1.08-4.33-.2-6.08,1-2,3.63-.5,4.83-.81Z" style="fill:#fdfbf8;"/><path d="M869.28,475.23c-3.74,.82-5.96-.16-5.57-5.26,.25-3.27,1.09-4.48,4.29-4.11,1.63,.19,3.32-.08,4.95,.14,2.61,.34,4.9,1.27,4.97,4.46,.08,3.49-2.31,4.43-5.16,4.75-.98,.11-1.98,.02-3.48,.02Z" style="fill:#fdfaf7;"/><path d="M869.02,448.67c1.83,0,3.16-.14,4.46,.03,2.34,.31,3.39,1.84,3.31,4.13-.07,1.96-1.32,3.13-3.08,3.32-3.07,.33-6.52,1.25-9.13-.45-1.64-1.06-1.1-4.22-.37-6.04,.91-2.28,3.53-.58,4.82-1Z" style="fill:#fdfbf8;"/><path d="M359.2,451.98c1.62,5.48,2.68,9.56,4.06,13.53,.77,2.22,.36,3.05-2.01,2.92-1.64-.09-3.3-.02-4.95-.02-1.47,0-2.11-.52-1.59-2.13,1.4-4.3,2.71-8.63,4.49-14.3Z" style="fill:#fdf8f3;"/></svg>